<?xml version="1.0" encoding="utf-8"?>
<!-- Generator: Adobe Illustrator 28.1.0, SVG Export Plug-In . SVG Version: 6.00 Build 0)  -->
<svg version="1.1" xmlns="http://www.w3.org/2000/svg" xmlns:xlink="http://www.w3.org/1999/xlink" x="0px" y="0px"
	 viewBox="0 0 230.5977 81.5161" style="enable-background:new 0 0 230.5977 81.5161;" xml:space="preserve">
<style type="text/css">
	.st0{display:none;}
	.st1{display:inline;}
	.st2{fill:#5A72FF;}
	.st3{fill:#FFFFFF;}
	.st4{display:inline;fill:none;}
	.st5{display:inline;fill:#FFFFFF;}
	.st6{fill:none;}
</style>
<g id="Capa_2" class="st0">
	<g class="st1">
		<rect x="0.4998" y="0.5002" width="229.5977" height="80.5161"/>
		<path d="M229.5977,1v79.5161H1V1H229.5977 M230.5977,0H0v81.5161h230.5977V0L230.5977,0z"/>
	</g>
</g>
<g id="Capa_1">
	<g>
		<path class="st2" d="M24.5276,35.3469v-6.1401h-3.4297c-2.3081,0-4.1895-0.3306-5.6436-0.9927
			c-1.4541-0.6611-2.5195-1.623-3.1968-2.8853c-0.6768-1.2612-1.0156-2.7773-1.0156-4.5469c0-1.7852,0.3428-3.3315,1.0273-4.6396
			s1.7539-2.312,3.2085-3.0122c1.4541-0.7002,3.3584-1.0503,5.7129-1.0503h3.337V5.9626h-4.0987
			c-3.6626,0-6.7056,0.6313-9.1294,1.8931c-2.4233,1.2617-4.2354,3.0044-5.436,5.228c-1.2002,2.2241-1.8003,4.7896-1.8003,7.6982
			c0,2.8931,0.604,5.4355,1.812,7.6284c1.2085,2.1929,3.0239,3.8975,5.4473,5.1128c0.4453,0.2234,0.9188,0.4191,1.4059,0.6014
			L2.2629,53.2355h8.125l9.6077-17.8984c0.1531,0.0022,0.3009,0.0097,0.4563,0.0097H24.5276z"/>
	</g>
	<g>
		<path class="st3" d="M28.1478,53.2355V5.9626h16.8501c3.6626,0,6.7056,0.6313,9.1294,1.8931
			c2.4233,1.2617,4.2354,3.0044,5.436,5.228c1.2002,2.2241,1.8003,4.7896,1.8003,7.6982c0,2.8931-0.604,5.4355-1.812,7.6284
			c-1.2085,2.1929-3.0239,3.8975-5.4473,5.1128c-2.4238,1.2158-5.4673,1.8237-9.1294,1.8237H32.2103v-6.1401h12.1187
			c2.3081,0,4.1895-0.3306,5.6436-0.9927c1.4541-0.6611,2.5195-1.623,3.1968-2.8853c0.6768-1.2612,1.0156-2.7773,1.0156-4.5469
			c0-1.7852-0.3428-3.3315-1.0273-4.6396s-1.7539-2.312-3.2085-3.0122c-1.4541-0.7002-3.3584-1.0503-5.7129-1.0503h-8.9556v41.1558
			H28.1478z M51.4842,31.9074l11.6797,21.3281h-8.125L43.5901,31.9074H51.4842z"/>
		<path class="st3" d="M81.1517,53.9509c-3.4932,0-6.4976-0.75-9.0137-2.2505c-2.5156-1.5-4.4546-3.6157-5.8164-6.3477
			c-1.3618-2.731-2.043-5.9355-2.043-9.6138c0-3.6313,0.6812-6.832,2.043-9.6021s3.2695-4.9316,5.7241-6.4863
			c2.4546-1.5542,5.3281-2.3311,8.6216-2.3311c2,0,3.939,0.3311,5.8164,0.9922c1.8774,0.6621,3.5625,1.7007,5.0552,3.1162
			c1.4927,1.416,2.6694,3.251,3.5317,5.5054c0.8613,2.2544,1.2925,4.9897,1.2925,8.2056v2.4468H68.1795v-5.1704h21.4204
			c0-1.8154-0.3691-3.4277-1.1079-4.8359c-0.7388-1.4077-1.7739-2.5195-3.1045-3.3354c-1.3311-0.8154-2.8892-1.2231-4.6743-1.2231
			c-1.939,0-3.6279,0.4731-5.0664,1.4194c-1.439,0.9463-2.5469,2.1777-3.3237,3.6934c-0.7773,1.5156-1.166,3.1587-1.166,4.9282
			v4.0391c0,2.3701,0.4194,4.3857,1.2583,6.0479c0.8384,1.6616,2.0117,2.9277,3.52,3.7969
			c1.5078,0.8696,3.2695,1.3042,5.2856,1.3042c1.3076,0,2.5005-0.188,3.5776-0.5654c1.0771-0.377,2.0083-0.9424,2.793-1.6968
			c0.7852-0.7534,1.3853-1.6851,1.8008-2.793l6.5322,1.1772c-0.5234,1.9238-1.458,3.605-2.8047,5.0435
			c-1.3467,1.4395-3.0317,2.5547-5.0547,3.3472C86.0413,53.5549,83.7371,53.9509,81.1517,53.9509z"/>
		<path class="st3" d="M100.41,66.5309v-48.75h6.7397v5.7476h0.5771c0.3999-0.7388,0.9771-1.5928,1.7314-2.562
			c0.7534-0.9697,1.8003-1.8198,3.1392-2.5508c1.3389-0.7305,3.1079-1.0962,5.3091-1.0962c2.8618,0,5.416,0.7231,7.6631,2.1694
			c2.2466,1.4468,4.0122,3.5317,5.2974,6.2554c1.2847,2.7236,1.9272,6.0015,1.9272,9.833c0,3.832-0.6387,7.1133-1.9155,9.8447
			c-1.2773,2.7319-3.0317,4.832-5.2627,6.3018c-2.2314,1.4697-4.7783,2.2041-7.6406,2.2041c-2.1543,0-3.9121-0.3618-5.2739-1.085
			c-1.3623-0.7231-2.4277-1.5693-3.1973-2.5391c-0.7695-0.9692-1.3618-1.8311-1.7773-2.585h-0.4155v18.812H100.41z
			 M107.1732,35.5085c0,2.4927,0.3613,4.6777,1.085,6.5552c0.7231,1.8774,1.769,3.3433,3.1392,4.397
			c1.3691,1.0542,3.0469,1.5815,5.0317,1.5815c2.062,0,3.7856-0.5503,5.1704-1.6504c1.3853-1.1001,2.4351-2.5972,3.1509-4.4897
			c0.7153-1.8926,1.0732-4.0239,1.0732-6.3936c0-2.3394-0.3501-4.4395-1.0503-6.3018c-0.7002-1.8618-1.7466-3.3315-3.1392-4.4087
			c-1.3931-1.0771-3.1274-1.6157-5.2051-1.6157c-2.0005,0-3.6895,0.5156-5.0664,1.5464c-1.3774,1.0312-2.4204,2.4697-3.1279,4.3164
			C107.5267,30.8918,107.1732,33.0466,107.1732,35.5085z"/>
		<path class="st3" d="M143.7884,5.9626v47.2729h-6.9014V5.9626H143.7884z"/>
		<path class="st3" d="M152.9129,12.3102c-1.2002,0-2.2275-0.4038-3.0815-1.2114c-0.854-0.8081-1.2812-1.7734-1.2812-2.897
			c0-1.1387,0.4272-2.1123,1.2812-2.9199c0.854-0.8081,1.8813-1.2119,3.0815-1.2119s2.2275,0.4038,3.0815,1.2119
			c0.854,0.8076,1.2812,1.7739,1.2812,2.897c0,1.1387-0.4272,2.1118-1.2812,2.9199
			C155.1404,11.9064,154.1131,12.3102,152.9129,12.3102z M149.4276,53.2355V17.7809h6.9014v35.4546H149.4276z"/>
		<path class="st3" d="M176.9022,53.9509c-3.4316,0-6.3823-0.7808-8.8521-2.3428c-2.4697-1.5615-4.3662-3.7197-5.6899-6.4746
			c-1.3232-2.7544-1.9849-5.9092-1.9849-9.4639c0-3.6006,0.6768-6.7822,2.0312-9.5444c1.354-2.7617,3.2622-4.9199,5.7246-6.4746
			c2.4619-1.5542,5.3623-2.3311,8.7017-2.3311c2.6929,0,5.0933,0.4961,7.2021,1.4888c2.1079,0.9922,3.812,2.3813,5.1123,4.166
			c1.3003,1.7856,2.0737,3.8706,2.3198,6.2554h-6.7168c-0.3691-1.6616-1.2119-3.0928-2.5273-4.293
			c-1.3159-1.2007-3.0742-1.8008-5.2744-1.8008c-1.9238,0-3.605,0.5044-5.0435,1.5122c-1.439,1.0078-2.5586,2.439-3.3584,4.293
			c-0.8003,1.855-1.2007,4.0435-1.2007,6.5674c0,2.585,0.3926,4.8164,1.1772,6.6938c0.7852,1.8774,1.8965,3.3315,3.3354,4.3623
			c1.439,1.0312,3.1353,1.5464,5.0898,1.5464c1.3076,0,2.4966-0.2422,3.5659-0.7271c1.0698-0.4844,1.9697-1.1807,2.7007-2.0889
			c0.731-0.9077,1.2427-2,1.5352-3.2778h6.7168c-0.2461,2.2935-0.9922,4.3398-2.2388,6.1401s-2.9126,3.2163-4.9976,4.2471
			S179.7029,53.9509,176.9022,53.9509z"/>
		<path class="st3" d="M205.555,54.0202c-2.2471,0-4.2783-0.4194-6.0938-1.2578c-1.8159-0.8384-3.251-2.0581-4.3052-3.6587
			c-1.0542-1.6001-1.5811-3.562-1.5811-5.8857c0-2.0005,0.3848-3.647,1.1543-4.9399c0.769-1.2925,1.8081-2.3159,3.1162-3.0698
			c1.3076-0.7539,2.7695-1.3232,4.3853-1.708c1.6162-0.3848,3.2622-0.6772,4.9399-0.8774c2.1235-0.2456,3.8467-0.4497,5.1704-0.6113
			c1.3232-0.1616,2.2852-0.4272,2.8853-0.7964c0.6001-0.3696,0.9004-0.9697,0.9004-1.8003v-0.1616
			c0-2.0161-0.5659-3.5781-1.6968-4.686s-2.8125-1.6616-5.0435-1.6616c-2.3237,0-4.1514,0.5117-5.4819,1.5347
			c-1.3315,1.0239-2.2505,2.1582-2.7583,3.4048l-6.4863-1.4771c0.7695-2.1543,1.8965-3.897,3.3813-5.2285
			c1.4849-1.3306,3.1973-2.3003,5.1362-2.9082s3.9775-0.9116,6.1167-0.9116c1.4155,0,2.9199,0.1655,4.5127,0.4961
			c1.5928,0.3311,3.085,0.9351,4.478,1.812c1.3926,0.877,2.5352,2.1274,3.4277,3.751c0.8921,1.6235,1.3384,3.7275,1.3384,6.313
			v23.5439h-6.7397v-4.8472h-0.2769c-0.4468,0.8926-1.1162,1.7695-2.0083,2.6313c-0.8926,0.8618-2.0391,1.5776-3.4395,2.1465
			C209.1863,53.7355,207.5091,54.0202,205.555,54.0202z M207.055,48.4806c1.9082,0,3.5435-0.377,4.9053-1.1313
			c1.3618-0.7534,2.4004-1.7427,3.1162-2.9658c0.7153-1.2236,1.0732-2.5352,1.0732-3.9355v-4.5703
			c-0.2466,0.2461-0.7197,0.4731-1.4194,0.6807c-0.7007,0.208-1.4971,0.3853-2.3892,0.5312
			c-0.8926,0.1465-1.7622,0.2769-2.6084,0.3921c-0.8462,0.1157-1.5542,0.2119-2.1235,0.2886
			c-1.3389,0.1694-2.5586,0.4541-3.6587,0.854c-1.1001,0.4004-1.9775,0.9736-2.6313,1.7197
			c-0.6543,0.7466-0.981,1.7354-0.981,2.9663c0,1.708,0.6309,2.9971,1.8926,3.8662
			C203.4925,48.0461,205.1009,48.4806,207.055,48.4806z"/>
	</g>
	<g class="st0">
		<rect x="-160.9968" y="-3.7704" class="st4" width="466" height="133"/>
		<path class="st5" d="M-155.8034,43.5016V-3.7713h16.8501c3.6626,0,6.7056,0.6313,9.1294,1.8931
			c2.4233,1.2617,4.2354,3.0044,5.436,5.228c1.2002,2.2241,1.8003,4.7896,1.8003,7.6982c0,2.8931-0.604,5.4355-1.812,7.6284
			c-1.2085,2.1929-3.0239,3.8975-5.4473,5.1128c-2.4238,1.2158-5.4673,1.8237-9.1294,1.8237h-12.7646v-6.1401h12.1187
			c2.3081,0,4.1895-0.3306,5.6436-0.9927c1.4541-0.6611,2.5195-1.623,3.1968-2.8853c0.6768-1.2612,1.0156-2.7773,1.0156-4.5469
			c0-1.7852-0.3428-3.3315-1.0273-4.6396s-1.7539-2.312-3.2085-3.0122c-1.4541-0.7002-3.3584-1.0503-5.7129-1.0503h-8.9556v41.1558
			H-155.8034z M-132.467,22.1735l11.6797,21.3281h-8.125l-11.4487-21.3281H-132.467z"/>
		<path class="st5" d="M-102.7995,44.217c-3.4932,0-6.4976-0.75-9.0137-2.2505c-2.5156-1.5-4.4546-3.6157-5.8164-6.3477
			c-1.3618-2.731-2.043-5.9355-2.043-9.6138c0-3.6313,0.6812-6.832,2.043-9.6021s3.2695-4.9316,5.7241-6.4863
			c2.4546-1.5542,5.3281-2.3311,8.6216-2.3311c2,0,3.939,0.3311,5.8164,0.9922c1.8774,0.6621,3.5625,1.7007,5.0552,3.1162
			c1.4927,1.416,2.6694,3.251,3.5317,5.5054c0.8613,2.2544,1.2925,4.9897,1.2925,8.2056v2.4468h-28.1836v-5.1704h21.4204
			c0-1.8154-0.3691-3.4277-1.1079-4.8359c-0.7388-1.4077-1.7739-2.5195-3.1045-3.3354c-1.3311-0.8154-2.8892-1.2231-4.6743-1.2231
			c-1.939,0-3.6279,0.4731-5.0664,1.4194c-1.439,0.9463-2.5469,2.1777-3.3237,3.6934c-0.7773,1.5156-1.166,3.1587-1.166,4.9282
			v4.0391c0,2.3701,0.4194,4.3857,1.2583,6.0479c0.8384,1.6616,2.0117,2.9277,3.52,3.7969
			c1.5078,0.8696,3.2695,1.3042,5.2856,1.3042c1.3076,0,2.5005-0.188,3.5776-0.5654c1.0771-0.377,2.0083-0.9424,2.793-1.6968
			c0.7852-0.7534,1.3853-1.6851,1.8008-2.793l6.5322,1.1772c-0.5234,1.9238-1.458,3.605-2.8047,5.0435
			c-1.3467,1.4395-3.0317,2.5547-5.0547,3.3472C-97.9099,43.821-100.2141,44.217-102.7995,44.217z"/>
		<path class="st5" d="M-83.5412,56.7971v-48.75h6.7397v5.7476h0.5771c0.3999-0.7388,0.9771-1.5928,1.7314-2.562
			c0.7534-0.9697,1.8003-1.8198,3.1392-2.5508c1.3389-0.7305,3.1079-1.0962,5.3091-1.0962c2.8618,0,5.416,0.7231,7.6631,2.1694
			c2.2466,1.4468,4.0122,3.5317,5.2974,6.2554c1.2847,2.7236,1.9272,6.0015,1.9272,9.833c0,3.832-0.6387,7.1133-1.9155,9.8447
			c-1.2773,2.7319-3.0317,4.832-5.2627,6.3018c-2.2314,1.4697-4.7783,2.2041-7.6406,2.2041c-2.1543,0-3.9121-0.3618-5.2739-1.085
			c-1.3623-0.7231-2.4277-1.5693-3.1973-2.5391c-0.7695-0.9692-1.3618-1.8311-1.7773-2.585h-0.4155v18.812H-83.5412z
			 M-76.778,25.7746c0,2.4927,0.3613,4.6777,1.085,6.5552c0.7231,1.8774,1.769,3.3433,3.1392,4.397
			c1.3691,1.0542,3.0469,1.5815,5.0317,1.5815c2.062,0,3.7856-0.5503,5.1704-1.6504c1.3853-1.1001,2.4351-2.5972,3.1509-4.4897
			c0.7153-1.8926,1.0732-4.0239,1.0732-6.3936c0-2.3394-0.3501-4.4395-1.0503-6.3018c-0.7002-1.8618-1.7466-3.3315-3.1392-4.4087
			c-1.3931-1.0771-3.1274-1.6157-5.2051-1.6157c-2.0005,0-3.6895,0.5156-5.0664,1.5464c-1.3774,1.0312-2.4204,2.4697-3.1279,4.3164
			C-76.4245,21.1579-76.778,23.3127-76.778,25.7746z"/>
		<path class="st5" d="M-40.1628-3.7713v47.2729h-6.9014V-3.7713H-40.1628z"/>
		<path class="st5" d="M-31.0383,2.5763c-1.2002,0-2.2275-0.4038-3.0815-1.2114c-0.854-0.8081-1.2812-1.7734-1.2812-2.897
			c0-1.1387,0.4272-2.1123,1.2812-2.9199c0.854-0.8081,1.8813-1.2119,3.0815-1.2119s2.2275,0.4038,3.0815,1.2119
			c0.854,0.8076,1.2812,1.7739,1.2812,2.897c0,1.1387-0.4272,2.1118-1.2812,2.9199C-28.8107,2.1725-29.8381,2.5763-31.0383,2.5763z
			 M-34.5236,43.5016V8.0471h6.9014v35.4546H-34.5236z"/>
		<path class="st5" d="M-7.049,44.217c-3.4316,0-6.3823-0.7808-8.8521-2.3428c-2.4697-1.5615-4.3662-3.7197-5.6899-6.4746
			c-1.3232-2.7544-1.9849-5.9092-1.9849-9.4639c0-3.6006,0.6768-6.7822,2.0312-9.5444c1.354-2.7617,3.2622-4.9199,5.7246-6.4746
			c2.4619-1.5542,5.3623-2.3311,8.7017-2.3311c2.6929,0,5.0933,0.4961,7.2021,1.4888c2.1079,0.9922,3.812,2.3813,5.1123,4.166
			c1.3003,1.7856,2.0737,3.8706,2.3198,6.2554H0.7991c-0.3691-1.6616-1.2119-3.0928-2.5273-4.293
			c-1.3159-1.2007-3.0742-1.8008-5.2744-1.8008c-1.9238,0-3.605,0.5044-5.0435,1.5122c-1.439,1.0078-2.5586,2.439-3.3584,4.293
			c-0.8003,1.855-1.2007,4.0435-1.2007,6.5674c0,2.585,0.3926,4.8164,1.1772,6.6938c0.7852,1.8774,1.8965,3.3315,3.3354,4.3623
			c1.439,1.0312,3.1353,1.5464,5.0898,1.5464c1.3076,0,2.4966-0.2422,3.5659-0.7271c1.0698-0.4844,1.9697-1.1807,2.7007-2.0889
			c0.731-0.9077,1.2427-2,1.5352-3.2778h6.7168c-0.2461,2.2935-0.9922,4.3398-2.2388,6.1401s-2.9126,3.2163-4.9976,4.2471
			S-4.2482,44.217-7.049,44.217z"/>
		<path class="st5" d="M21.6038,44.2863c-2.2471,0-4.2783-0.4194-6.0938-1.2578c-1.8159-0.8384-3.251-2.0581-4.3052-3.6587
			c-1.0542-1.6001-1.5811-3.562-1.5811-5.8857c0-2.0005,0.3848-3.647,1.1543-4.9399c0.769-1.2925,1.8081-2.3159,3.1162-3.0698
			c1.3076-0.7539,2.7695-1.3232,4.3853-1.708c1.6162-0.3848,3.2622-0.6772,4.9399-0.8774c2.1235-0.2456,3.8467-0.4497,5.1704-0.6113
			c1.3232-0.1616,2.2852-0.4272,2.8853-0.7964c0.6001-0.3696,0.9004-0.9697,0.9004-1.8003v-0.1616
			c0-2.0161-0.5659-3.5781-1.6968-4.686s-2.8125-1.6616-5.0435-1.6616c-2.3237,0-4.1514,0.5117-5.4819,1.5347
			c-1.3315,1.0239-2.2505,2.1582-2.7583,3.4048l-6.4863-1.4771c0.7695-2.1543,1.8965-3.897,3.3813-5.2285
			c1.4849-1.3306,3.1973-2.3003,5.1362-2.9082s3.9775-0.9116,6.1167-0.9116c1.4155,0,2.9199,0.1655,4.5127,0.4961
			c1.5928,0.3311,3.085,0.9351,4.478,1.812c1.3926,0.877,2.5352,2.1274,3.4277,3.751c0.8921,1.6235,1.3384,3.7275,1.3384,6.313
			v23.5439h-6.7397v-4.8472h-0.2769c-0.4468,0.8926-1.1162,1.7695-2.0083,2.6313c-0.8926,0.8618-2.0391,1.5776-3.4395,2.1465
			C25.2352,44.0016,23.5579,44.2863,21.6038,44.2863z M23.1038,38.7468c1.9082,0,3.5435-0.377,4.9053-1.1313
			c1.3618-0.7534,2.4004-1.7427,3.1162-2.9658c0.7153-1.2236,1.0732-2.5352,1.0732-3.9355v-4.5703
			c-0.2466,0.2461-0.7197,0.4731-1.4194,0.6807c-0.7007,0.208-1.4971,0.3853-2.3892,0.5312
			c-0.8926,0.1465-1.7622,0.2769-2.6084,0.3921c-0.8462,0.1157-1.5542,0.2119-2.1235,0.2886
			c-1.3389,0.1694-2.5586,0.4541-3.6587,0.854c-1.1001,0.4004-1.9775,0.9736-2.6313,1.7197
			c-0.6543,0.7466-0.981,1.7354-0.981,2.9663c0,1.708,0.6309,2.9971,1.8926,3.8662C19.5413,38.3122,21.1497,38.7468,23.1038,38.7468
			z"/>
	</g>
	<g>
		<rect x="154.9681" y="66.5704" class="st6" width="242.5581" height="61.0978"/>
		<path class="st3" d="M160.3289,78.9338h-4.0024V66.57h4.1294c1.2109,0,2.2515,0.2466,3.1211,0.7397
			c0.8691,0.4932,1.5361,1.1992,2.001,2.1187c0.4648,0.9199,0.6973,2.0215,0.6973,3.3057c0,1.2876-0.2344,2.3945-0.7031,3.3203
			c-0.4692,0.9253-1.146,1.6367-2.0317,2.1338C162.6551,78.6852,161.5848,78.9338,160.3289,78.9338z M158.1917,77.3039h2.0347
			c0.9414,0,1.7241-0.1782,2.3481-0.5342c0.624-0.3564,1.0908-0.8735,1.4009-1.5518c0.3096-0.6782,0.4648-1.5063,0.4648-2.4839
			c0-0.9702-0.1543-1.793-0.4619-2.4692c-0.3081-0.6763-0.7661-1.1895-1.3735-1.5396c-0.6079-0.3501-1.3623-0.5254-2.2637-0.5254
			h-2.1494V77.3039z"/>
		<path class="st3" d="M174.7444,78.9338V66.57h7.7515v1.606h-5.8862v3.7671h5.4814v1.5996h-5.4814v3.7852h5.9585v1.606H174.7444z"
			/>
		<path class="st3" d="M191.1458,66.57h2.2637l3.936,9.6108h0.145l3.936-9.6108h2.2637v12.3638h-1.7744V69.987h-0.1147
			l-3.6465,8.9287h-1.4731l-3.646-8.9346h-0.1147v8.9526h-1.7749V66.57z"/>
		<path class="st3" d="M223.2977,72.7521c0,1.3198-0.2417,2.4536-0.7246,3.4019c-0.4829,0.9478-1.144,1.6763-1.9829,2.1851
			c-0.8394,0.5093-1.792,0.7637-2.8589,0.7637c-1.0703,0-2.0254-0.2544-2.8643-0.7637c-0.8394-0.5088-1.5-1.2383-1.9834-2.1885
			c-0.4829-0.9497-0.7241-2.0825-0.7241-3.3984c0-1.3203,0.2412-2.4541,0.7241-3.4019c0.4834-0.9478,1.144-1.6763,1.9834-2.1855
			c0.8389-0.5093,1.7939-0.7637,2.8643-0.7637c1.0669,0,2.0195,0.2544,2.8589,0.7637c0.8389,0.5093,1.5,1.2378,1.9829,2.1855
			S223.2977,71.4318,223.2977,72.7521z M221.45,72.7521c0-1.0063-0.1616-1.8545-0.4858-2.5449
			c-0.3237-0.6899-0.7666-1.2134-1.3281-1.5693c-0.5615-0.3564-1.1963-0.5342-1.9048-0.5342c-0.7119,0-1.3481,0.1777-1.9072,0.5342
			c-0.5596,0.356-1.0015,0.8794-1.3252,1.5693c-0.3242,0.6904-0.4863,1.5386-0.4863,2.5449c0,1.0059,0.1621,1.854,0.4863,2.5444
			c0.3237,0.6904,0.7656,1.2134,1.3252,1.5693c0.5591,0.3564,1.1953,0.5347,1.9072,0.5347c0.7085,0,1.3433-0.1782,1.9048-0.5347
			c0.5615-0.356,1.0044-0.8789,1.3281-1.5693C221.2884,74.6061,221.45,73.758,221.45,72.7521z"/>
	</g>
	<g>
	</g>
	<g>
	</g>
	<g>
	</g>
	<g>
	</g>
	<g>
	</g>
	<g>
	</g>
	<g>
	</g>
	<g>
	</g>
	<g>
	</g>
	<g>
	</g>
	<g>
	</g>
	<g>
	</g>
	<g>
	</g>
	<g>
	</g>
	<g>
	</g>
</g>
</svg>
