<?xml version="1.0" encoding="utf-8"?>
<!-- Generator: Adobe Illustrator 28.1.0, SVG Export Plug-In . SVG Version: 6.00 Build 0)  -->
<svg version="1.1" xmlns="http://www.w3.org/2000/svg" xmlns:xlink="http://www.w3.org/1999/xlink" x="0px" y="0px"
	 viewBox="0 0 65.8322 59.6204" style="enable-background:new 0 0 65.8322 59.6204;" xml:space="preserve">
<style type="text/css">
	.st0{display:none;}
	.st1{display:inline;}
	.st2{fill:#5A72FF;}
	.st3{fill:#FFFFFF;}
	.st4{display:inline;fill:none;}
	.st5{display:inline;fill:#FFFFFF;}
</style>
<g id="Capa_2" class="st0">
	<g class="st1">
		<rect x="0.4998" y="0.5002" width="64.8325" height="58.6201"/>
		<path d="M64.8322,1v57.6204H1V1H64.8322 M65.8322,0H0v59.6204h65.8322V0L65.8322,0z"/>
	</g>
</g>
<g id="Capa_1">
	<g>
		<path class="st2" d="M24.5276,35.3469v-6.1401h-3.4297c-2.3081,0-4.1895-0.3306-5.6436-0.9927
			c-1.4541-0.6611-2.5195-1.623-3.1968-2.8853c-0.6768-1.2612-1.0156-2.7773-1.0156-4.5469c0-1.7852,0.3428-3.3315,1.0273-4.6396
			s1.7539-2.312,3.2085-3.0122c1.4541-0.7002,3.3584-1.0503,5.7129-1.0503h3.337V5.9626h-4.0987
			c-3.6626,0-6.7056,0.6313-9.1294,1.8931c-2.4233,1.2617-4.2354,3.0044-5.436,5.228c-1.2002,2.2241-1.8003,4.7896-1.8003,7.6982
			c0,2.8931,0.604,5.4355,1.812,7.6284c1.2085,2.1929,3.0239,3.8975,5.4473,5.1128c0.4453,0.2234,0.9188,0.4191,1.4059,0.6014
			L2.2629,53.2355h8.125l9.6077-17.8984c0.1531,0.0022,0.3009,0.0097,0.4563,0.0097H24.5276z"/>
	</g>
	<g>
		<path class="st3" d="M28.1478,53.2355V5.9626h16.8501c3.6626,0,6.7056,0.6313,9.1294,1.8931
			c2.4233,1.2617,4.2354,3.0044,5.436,5.228c1.2002,2.2241,1.8003,4.7896,1.8003,7.6982c0,2.8931-0.604,5.4355-1.812,7.6284
			c-1.2085,2.1929-3.0239,3.8975-5.4473,5.1128c-2.4238,1.2158-5.4673,1.8237-9.1294,1.8237H32.2103v-6.1401h12.1187
			c2.3081,0,4.1895-0.3306,5.6436-0.9927c1.4541-0.6611,2.5195-1.623,3.1968-2.8853c0.6768-1.2612,1.0156-2.7773,1.0156-4.5469
			c0-1.7852-0.3428-3.3315-1.0273-4.6396s-1.7539-2.312-3.2085-3.0122c-1.4541-0.7002-3.3584-1.0503-5.7129-1.0503h-8.9556v41.1558
			H28.1478z M51.4842,31.9074l11.6797,21.3281h-8.125L43.5901,31.9074H51.4842z"/>
	</g>
	<g class="st0">
		<rect x="-160.9968" y="-3.7704" class="st4" width="466" height="133"/>
		<path class="st5" d="M-156.0563-0.8475c2.8599-0.585,6.9551-0.9102,10.855-0.9102c6.0454,0,9.9458,1.105,12.6758,3.5752
			c2.21,1.9502,3.4448,4.9404,3.4448,8.3203c0,5.7852-3.6401,9.6201-8.2549,11.1807v0.1948c3.3799,1.1699,5.395,4.29,6.4351,8.8403
			c1.4302,6.1104,2.4702,10.3355,3.3799,12.0254h-5.8501c-0.7148-1.2349-1.6899-5.0054-2.9248-10.4653
			c-1.3003-6.0454-3.6406-8.3203-8.7754-8.5151h-5.3306v18.9805h-5.6548V-0.8475z M-150.4016,19.1081h5.7856
			c6.0449,0,9.8799-3.3149,9.8799-8.3203c0-5.6553-4.0947-8.125-10.0752-8.1899c-2.73,0-4.6802,0.2598-5.5903,0.5195V19.1081z"/>
		<path class="st5" d="M-121.4772,27.6887c0.1299,7.7354,5.0703,10.9204,10.7905,10.9204c4.0952,0,6.5654-0.7153,8.7104-1.625
			l0.9751,4.0952c-2.0151,0.9097-5.4604,1.9497-10.4653,1.9497c-9.6855,0-15.4707-6.3701-15.4707-15.8604
			c0-9.4907,5.5898-16.9658,14.7554-16.9658c10.2705,0,13.0005,9.0356,13.0005,14.8208c0,1.1699-0.1299,2.0801-0.1948,2.665
			H-121.4772z M-104.7067,23.5934c0.0654-3.6401-1.4946-9.2954-7.9302-9.2954c-5.7852,0-8.3203,5.3301-8.7754,9.2954H-104.7067z"/>
		<path class="st5" d="M-95.7375,21.1882c0-4.0298-0.1299-7.2803-0.2598-10.27h5.1353l0.2598,5.395h0.1299
			c2.3403-3.8354,6.0454-6.1104,11.1807-6.1104c7.605,0,13.3252,6.4351,13.3252,15.9907c0,11.3105-6.8901,16.9004-14.3003,16.9004
			c-4.1602,0-7.8003-1.8198-9.6855-4.9399h-0.1299v17.0957h-5.6553V21.1882z M-90.0822,29.5734c0,0.8452,0.1299,1.625,0.2603,2.3403
			c1.04,3.9653,4.4849,6.6953,8.5801,6.6953c6.0454,0,9.5552-4.9404,9.5552-12.1558c0-6.3052-3.3149-11.7002-9.3604-11.7002
			c-3.8999,0-7.54,2.7949-8.645,7.085c-0.1953,0.7153-0.3901,1.5605-0.3901,2.3403V29.5734z"/>
		<path class="st5" d="M-62.3937-3.7728h5.7202v46.1519h-5.7202V-3.7728z"/>
		<path class="st5" d="M-44.3244,2.0773c0.0649,1.9502-1.3647,3.5103-3.6401,3.5103c-2.0146,0-3.4448-1.5601-3.4448-3.5103
			c0-2.0146,1.4951-3.5747,3.5752-3.5747C-45.6891-1.4974-44.3244,0.0627-44.3244,2.0773z M-50.6945,42.3791V10.9181h5.7202v31.4609
			H-50.6945z"/>
		<path class="st5" d="M-16.6994,41.2092c-1.4951,0.7798-4.8101,1.8198-9.0352,1.8198c-9.4902,0-15.6655-6.4351-15.6655-16.0557
			c0-9.6851,6.6299-16.7056,16.9004-16.7056c3.3804,0,6.3701,0.8452,7.9307,1.625l-1.3003,4.4204
			c-1.3652-0.7803-3.5103-1.4951-6.6304-1.4951c-7.2153,0-11.1152,5.3301-11.1152,11.8955c0,7.2803,4.6802,11.7651,10.9204,11.7651
			c3.25,0,5.395-0.8447,7.02-1.5596L-16.6994,41.2092z"/>
		<path class="st5" d="M3.7757,42.3791l-0.4551-3.9653H3.1253c-1.7549,2.4702-5.1348,4.6802-9.6201,4.6802
			c-6.3701,0-9.6206-4.4849-9.6206-9.0352c0-7.6055,6.7603-11.7656,18.916-11.7002v-0.6504c0-2.6001-0.7153-7.2803-7.1504-7.2803
			c-2.9253,0-5.98,0.9102-8.1904,2.3403l-1.2998-3.77c2.6001-1.6904,6.3701-2.7954,10.3354-2.7954
			c9.6201,0,11.9604,6.5654,11.9604,12.8706V34.839c0,2.73,0.1299,5.395,0.52,7.54H3.7757z M2.9305,26.3234
			c-6.2402-0.1299-13.3257,0.9751-13.3257,7.0855c0,3.7051,2.4702,5.46,5.3955,5.46c4.0952,0,6.6953-2.6001,7.605-5.2651
			c0.1953-0.585,0.3252-1.2349,0.3252-1.8198V26.3234z"/>
	</g>
	<g>
	</g>
	<g>
	</g>
	<g>
	</g>
	<g>
	</g>
	<g>
	</g>
	<g>
	</g>
	<g>
	</g>
	<g>
	</g>
	<g>
	</g>
	<g>
	</g>
	<g>
	</g>
	<g>
	</g>
	<g>
	</g>
	<g>
	</g>
	<g>
	</g>
</g>
</svg>
